<svg width="19" height="19" viewBox="0 0 19 19" fill="none" xmlns="http://www.w3.org/2000/svg">
<path d="M8.93848 4.10179C10.6855 3.8936 12.4527 4.26291 13.9701 5.15333C15.4876 6.04375 16.6719 7.40635 17.3422 9.03304C17.4047 9.20143 17.4047 9.38666 17.3422 9.55504C17.0666 10.2233 16.7023 10.8514 16.2592 11.4225" stroke="#A7A7A7" stroke-width="1.5" stroke-linecap="round" stroke-linejoin="round"/>
<path d="M11.4518 10.9132C11.0274 11.323 10.4591 11.5498 9.86912 11.5447C9.27918 11.5396 8.71485 11.3029 8.29768 10.8858C7.88051 10.4686 7.64388 9.90428 7.63876 9.31434C7.63363 8.7244 7.86042 8.15604 8.27027 7.73169" stroke="#A7A7A7" stroke-width="1.5" stroke-linecap="round" stroke-linejoin="round"/>
<path d="M13.9978 13.419C13.0029 14.0083 11.8929 14.3768 10.7431 14.4993C9.59326 14.6218 8.43053 14.4956 7.33379 14.1292C6.23704 13.7627 5.23196 13.1647 4.38672 12.3756C3.54148 11.5865 2.87588 10.6248 2.43506 9.55576C2.37256 9.38738 2.37256 9.20215 2.43506 9.03376C3.10004 7.42116 4.27007 6.0677 5.76956 5.17651" stroke="#A7A7A7" stroke-width="1.5" stroke-linecap="round" stroke-linejoin="round"/>
<path d="M2.38867 1.79468L17.3887 16.7947" stroke="#A7A7A7" stroke-width="1.5" stroke-linecap="round" stroke-linejoin="round"/>
</svg>
