<svg width="56" height="56" viewBox="0 0 56 56" fill="none" xmlns="http://www.w3.org/2000/svg">
<rect width="56" height="56" rx="28" fill="#CBFBF1"/>
<path d="M39.4345 25.6667C39.9673 28.2815 39.5876 31 38.3587 33.3687C37.1297 35.7375 35.1259 37.6134 32.6813 38.6835C30.2367 39.7537 27.4991 39.9534 24.925 39.2494C22.351 38.5454 20.0961 36.9803 18.5363 34.815C16.9766 32.6497 16.2063 30.0151 16.3539 27.3506C16.5016 24.6861 17.5582 22.1528 19.3476 20.173C21.137 18.1933 23.551 16.8868 26.1871 16.4715C28.8231 16.0562 31.5219 16.5572 33.8333 17.8908" stroke="#009689" stroke-width="2.33333" stroke-linecap="round" stroke-linejoin="round"/>
<path d="M24.5 26.8334L28 30.3334L39.6667 18.6667" stroke="#009689" stroke-width="2.33333" stroke-linecap="round" stroke-linejoin="round"/>
</svg>
