<svg width="16" height="17" viewBox="0 0 16 17" fill="none" xmlns="http://www.w3.org/2000/svg">
<path d="M6.66675 7.45337V11.4534" stroke="#FA5252" stroke-width="1.33333" stroke-linecap="round" stroke-linejoin="round"/>
<path d="M9.33325 7.45337V11.4534" stroke="#FA5252" stroke-width="1.33333" stroke-linecap="round" stroke-linejoin="round"/>
<path d="M12.6666 4.12012V13.4535C12.6666 13.8071 12.5261 14.1462 12.2761 14.3963C12.026 14.6463 11.6869 14.7868 11.3333 14.7868H4.66659C4.31296 14.7868 3.97382 14.6463 3.72378 14.3963C3.47373 14.1462 3.33325 13.8071 3.33325 13.4535V4.12012" stroke="#FA5252" stroke-width="1.33333" stroke-linecap="round" stroke-linejoin="round"/>
<path d="M2 4.12012H14" stroke="#FA5252" stroke-width="1.33333" stroke-linecap="round" stroke-linejoin="round"/>
<path d="M5.33325 4.12004V2.7867C5.33325 2.43308 5.47373 2.09394 5.72378 1.84389C5.97383 1.59384 6.31296 1.45337 6.66659 1.45337H9.33325C9.68687 1.45337 10.026 1.59384 10.2761 1.84389C10.5261 2.09394 10.6666 2.43308 10.6666 2.7867V4.12004" stroke="#FA5252" stroke-width="1.33333" stroke-linecap="round" stroke-linejoin="round"/>
</svg>
