<svg width="15" height="15" viewBox="0 0 15 15" fill="none" xmlns="http://www.w3.org/2000/svg">
<path d="M11.8867 6.58329C11.8867 9.49588 8.65559 12.5292 7.57059 13.466C7.46952 13.542 7.34648 13.5831 7.22001 13.5831C7.09355 13.5831 6.97051 13.542 6.86943 13.466C5.78443 12.5292 2.55334 9.49588 2.55334 6.58329C2.55334 5.34562 3.04501 4.15863 3.92018 3.28346C4.79535 2.40829 5.98233 1.91663 7.22001 1.91663C8.45769 1.91663 9.64467 2.40829 10.5198 3.28346C11.395 4.15863 11.8867 5.34562 11.8867 6.58329Z" stroke="#62748E" stroke-width="1.16667" stroke-linecap="round" stroke-linejoin="round"/>
<path d="M7.21997 8.33337C8.18647 8.33337 8.96997 7.54987 8.96997 6.58337C8.96997 5.61688 8.18647 4.83337 7.21997 4.83337C6.25347 4.83337 5.46997 5.61688 5.46997 6.58337C5.46997 7.54987 6.25347 8.33337 7.21997 8.33337Z" stroke="#62748E" stroke-width="1.16667" stroke-linecap="round" stroke-linejoin="round"/>
</svg>
