<svg width="20" height="21" viewBox="0 0 20 21" fill="none" xmlns="http://www.w3.org/2000/svg">
<path fill-rule="evenodd" clip-rule="evenodd" d="M2 4.76855C2 4.35434 2.33579 4.01855 2.75 4.01855H17.25C17.6642 4.01855 18 4.35434 18 4.76855C18 5.18277 17.6642 5.51855 17.25 5.51855H2.75C2.33579 5.51855 2 5.18277 2 4.76855ZM2 10.0186C2 9.60434 2.33579 9.26855 2.75 9.26855H17.25C17.6642 9.26855 18 9.60434 18 10.0186C18 10.4328 17.6642 10.7686 17.25 10.7686H2.75C2.33579 10.7686 2 10.4328 2 10.0186ZM2 15.2686C2 14.8543 2.33579 14.5186 2.75 14.5186H17.25C17.6642 14.5186 18 14.8543 18 15.2686C18 15.6828 17.6642 16.0186 17.25 16.0186H2.75C2.33579 16.0186 2 15.6828 2 15.2686Z" fill="#0F172A"/>
</svg>
