<svg width="20" height="20" viewBox="0 0 20 20" fill="none" xmlns="http://www.w3.org/2000/svg">
<path d="M1.71835 10.2901C1.6489 10.103 1.6489 9.89715 1.71835 9.71006C2.39476 8.06993 3.54294 6.66759 5.01732 5.6808C6.4917 4.69402 8.22588 4.16724 10 4.16724C11.7741 4.16724 13.5083 4.69402 14.9827 5.6808C16.4571 6.66759 17.6053 8.06993 18.2817 9.71006C18.3511 9.89715 18.3511 10.103 18.2817 10.2901C17.6053 11.9302 16.4571 13.3325 14.9827 14.3193C13.5083 15.3061 11.7741 15.8329 10 15.8329C8.22588 15.8329 6.4917 15.3061 5.01732 14.3193C3.54294 13.3325 2.39476 11.9302 1.71835 10.2901Z" stroke="#A7A7A7" stroke-width="1.66667" stroke-linecap="round" stroke-linejoin="round"/>
<path d="M10 12.5C11.3807 12.5 12.5 11.3807 12.5 10C12.5 8.61929 11.3807 7.5 10 7.5C8.61929 7.5 7.5 8.61929 7.5 10C7.5 11.3807 8.61929 12.5 10 12.5Z" stroke="#A7A7A7" stroke-width="1.66667" stroke-linecap="round" stroke-linejoin="round"/>
</svg>
