<svg width="15" height="15" viewBox="0 0 15 15" fill="none" xmlns="http://www.w3.org/2000/svg">
<path d="M7.44292 2.08877C7.46848 2.03712 7.50797 1.99365 7.55693 1.96325C7.60589 1.93285 7.66237 1.91675 7.72 1.91675C7.77763 1.91675 7.83411 1.93285 7.88307 1.96325C7.93203 1.99365 7.97152 2.03712 7.99709 2.08877L9.34459 4.81819C9.43336 4.99783 9.56439 5.15326 9.72645 5.27112C9.88851 5.38898 10.0767 5.46575 10.275 5.49485L13.2885 5.93585C13.3456 5.94413 13.3992 5.96821 13.4434 6.00539C13.4875 6.04256 13.5203 6.09134 13.5382 6.14621C13.556 6.20107 13.5582 6.25984 13.5443 6.31586C13.5305 6.37187 13.5013 6.42291 13.46 6.46319L11.2807 8.58535C11.1369 8.72541 11.0294 8.8983 10.9673 9.08914C10.9052 9.27997 10.8905 9.48304 10.9243 9.68085L11.4388 12.6792C11.4488 12.7363 11.4427 12.795 11.421 12.8488C11.3993 12.9025 11.3629 12.949 11.316 12.9831C11.2691 13.0172 11.2136 13.0374 11.1558 13.0414C11.0979 13.0454 11.0402 13.0331 10.989 13.0059L8.29517 11.5895C8.11767 11.4963 7.92019 11.4476 7.71971 11.4476C7.51923 11.4476 7.32175 11.4963 7.14425 11.5895L4.451 13.0059C4.39986 13.0329 4.34215 13.0451 4.28443 13.041C4.22671 13.0369 4.17131 13.0167 4.12451 12.9826C4.07771 12.9486 4.04141 12.9021 4.01972 12.8485C3.99803 12.7948 3.99184 12.7362 4.00184 12.6792L4.51575 9.68144C4.5497 9.48353 4.53499 9.28033 4.4729 9.08938C4.41081 8.89842 4.30319 8.72544 4.15934 8.58535L1.98 6.46377C1.93835 6.42354 1.90883 6.37242 1.89481 6.31623C1.8808 6.26004 1.88284 6.20105 1.90072 6.14596C1.91859 6.09088 1.95158 6.04193 1.99591 6.00468C2.04025 5.96743 2.09416 5.94338 2.1515 5.93527L5.16442 5.49485C5.3629 5.46598 5.5514 5.3893 5.71368 5.27143C5.87596 5.15355 6.00716 4.99801 6.096 4.81819L7.44292 2.08877Z" fill="#FCC800" stroke="#FCC800" stroke-width="1.16667" stroke-linecap="round" stroke-linejoin="round"/>
</svg>
